<svg width="235" height="49" viewBox="0 0 235 49" fill="none" xmlns="http://www.w3.org/2000/svg">
<g clip-path="url(#clip0_101_3)">
<path d="M27.0454 30.5013H28.9585H29.4585V31.0013V39.7355L29.4697 39.9065C29.5125 40.2045 29.6774 40.488 29.9477 40.695C30.2236 40.9061 30.5846 41.0177 30.9571 40.9977C31.3294 40.9777 31.6711 40.8285 31.915 40.5922C32.1576 40.3572 32.2846 40.0555 32.285 39.7512V11.7664L32.2738 11.5951C32.2331 11.3087 32.0796 11.0354 31.8273 10.8302C31.5699 10.6208 31.2302 10.5001 30.8718 10.5L27.0454 30.5013ZM27.0454 30.5013C27.0454 30.5013 27.0453 30.5013 27.0453 30.5013C26.6869 30.5012 26.3472 30.3805 26.0898 30.1711C25.8375 29.9659 25.684 29.6926 25.6433 29.4062M27.0454 30.5013L25.6433 29.4062M25.6433 29.4062L25.6321 29.2349V18.7505C25.6321 16.9259 26.3143 14.8295 27.3485 13.1918C27.8639 12.3757 28.4545 11.6932 29.0694 11.2195C29.6856 10.7447 30.2984 10.5 30.8717 10.5L25.6433 29.4062ZM12.2396 11.7507L12.2396 23.5318V24.3613L11.5061 23.974C10.8508 23.6278 10.301 23.1271 9.91627 22.5176C9.5313 21.9077 9.32644 21.2119 9.32642 20.5006V11.7664L9.31524 11.5954C9.2725 11.2975 9.10755 11.014 8.83722 10.807C8.56139 10.5958 8.20034 10.4842 7.8279 10.5042C7.45552 10.5242 7.11384 10.6734 6.86995 10.9097C6.62743 11.1447 6.50044 11.4463 6.5 11.7504V20.494L6.50919 20.8403C6.58823 22.2087 7.14168 23.5247 8.09828 24.5964C9.05724 25.6707 10.3718 26.4433 11.8547 26.794L12.2396 26.885V27.2806V39.7355L12.2508 39.9065C12.2936 40.2045 12.4585 40.488 12.7288 40.695C13.0047 40.9061 13.3657 41.0177 13.7382 40.9977C14.1105 40.9777 14.4522 40.8285 14.6961 40.5922C14.9385 40.3573 15.0655 40.0559 15.0661 39.7518C15.0661 39.7516 15.0661 39.7514 15.0661 39.7512M12.2396 11.7507L15.0661 39.7512M12.2396 11.7507C12.2396 11.7506 12.2396 11.7505 12.2396 11.7504C12.2401 11.4462 12.3671 11.1447 12.6096 10.9097C12.8535 10.6734 13.1952 10.5242 13.5675 10.5042C13.94 10.4842 14.301 10.5958 14.5769 10.807C14.8472 11.014 15.0121 11.2975 15.0549 11.5954M12.2396 11.7507L15.0549 11.5954M15.0661 39.7512L15.0661 27.2806V26.885L15.451 26.794C16.9952 26.4287 18.3549 25.6063 19.3211 24.465C20.2866 23.3245 20.8055 21.9299 20.8057 20.5006M15.0661 39.7512L20.8057 20.5006M20.8057 20.5006C20.8057 20.5006 20.8057 20.5006 20.8057 20.5006M20.8057 20.5006V20.5006M20.8057 20.5006V11.7664L20.7945 11.5951C20.7538 11.3087 20.6003 11.0354 20.3481 10.8302C20.0906 10.6208 19.7509 10.5001 19.3925 10.5L20.8057 20.5006ZM15.0549 11.5954L15.0661 11.7665L15.068 23.5319L15.0681 24.3617L15.8017 23.9738C16.4033 23.6558 16.9165 23.2069 17.2945 22.6621C17.6728 22.117 17.9036 21.4928 17.9638 20.8424L17.9648 20.8308L17.9654 20.819L17.9788 20.5233L17.9793 20.512V20.5006V11.7501C17.9793 11.4337 18.1163 11.1201 18.3771 10.8815C18.6394 10.6416 19.004 10.5 19.3924 10.5L15.0549 11.5954Z" fill="#FCFCFC" stroke="#EC7CDA"/>
<line x1="42.5" y1="1" x2="42.5" y2="47" stroke="#EC7CDA"/>
<path d="M53.6213 14.6H68.0853V16.36H56.5333V24.392H66.4533V25.864H56.5333V37H53.6213V14.6ZM87.2073 29.032C87.2073 30.1413 87.0153 31.208 86.6313 32.232C86.2473 33.2347 85.6926 34.12 84.9673 34.888C84.2633 35.656 83.3993 36.264 82.3753 36.712C81.3726 37.16 80.2419 37.384 78.9833 37.384C77.7033 37.384 76.5406 37.16 75.4953 36.712C74.4713 36.2427 73.5966 35.624 72.8713 34.856C72.1673 34.088 71.6126 33.2027 71.2073 32.2C70.8233 31.176 70.6313 30.12 70.6313 29.032C70.6313 27.9227 70.8233 26.8667 71.2073 25.864C71.6126 24.84 72.1673 23.944 72.8713 23.176C73.5966 22.408 74.4713 21.8 75.4953 21.352C76.5406 20.8827 77.7033 20.648 78.9833 20.648C80.2419 20.648 81.3726 20.8827 82.3753 21.352C83.3993 21.8 84.2633 22.408 84.9673 23.176C85.6926 23.944 86.2473 24.84 86.6313 25.864C87.0153 26.8667 87.2073 27.9227 87.2073 29.032ZM84.1673 29.032C84.1673 27.5387 84.0073 26.3333 83.6873 25.416C83.3673 24.4773 82.9513 23.752 82.4393 23.24C81.9273 22.728 81.3619 22.3867 80.7433 22.216C80.1246 22.024 79.5273 21.928 78.9513 21.928C78.3753 21.928 77.7779 22.024 77.1593 22.216C76.5406 22.3867 75.9646 22.728 75.4313 23.24C74.9193 23.752 74.4926 24.4773 74.1513 25.416C73.8313 26.3333 73.6713 27.5387 73.6713 29.032C73.6713 30.504 73.8313 31.7093 74.1513 32.648C74.4926 33.5653 74.9193 34.28 75.4313 34.792C75.9646 35.304 76.5406 35.656 77.1593 35.848C77.7779 36.0187 78.3753 36.104 78.9513 36.104C79.5273 36.104 80.1246 36.0187 80.7433 35.848C81.3619 35.656 81.9273 35.304 82.4393 34.792C82.9513 34.28 83.3673 33.5653 83.6873 32.648C84.0073 31.7093 84.1673 30.504 84.1673 29.032ZM106.989 29.032C106.989 30.1413 106.797 31.208 106.413 32.232C106.029 33.2347 105.474 34.12 104.749 34.888C104.045 35.656 103.181 36.264 102.157 36.712C101.154 37.16 100.023 37.384 98.7645 37.384C97.4845 37.384 96.3218 37.16 95.2765 36.712C94.2525 36.2427 93.3778 35.624 92.6525 34.856C91.9485 34.088 91.3938 33.2027 90.9885 32.2C90.6045 31.176 90.4125 30.12 90.4125 29.032C90.4125 27.9227 90.6045 26.8667 90.9885 25.864C91.3938 24.84 91.9485 23.944 92.6525 23.176C93.3778 22.408 94.2525 21.8 95.2765 21.352C96.3218 20.8827 97.4845 20.648 98.7645 20.648C100.023 20.648 101.154 20.8827 102.157 21.352C103.181 21.8 104.045 22.408 104.749 23.176C105.474 23.944 106.029 24.84 106.413 25.864C106.797 26.8667 106.989 27.9227 106.989 29.032ZM103.949 29.032C103.949 27.5387 103.789 26.3333 103.469 25.416C103.149 24.4773 102.733 23.752 102.221 23.24C101.709 22.728 101.143 22.3867 100.525 22.216C99.9058 22.024 99.3085 21.928 98.7325 21.928C98.1565 21.928 97.5592 22.024 96.9405 22.216C96.3218 22.3867 95.7458 22.728 95.2125 23.24C94.7005 23.752 94.2738 24.4773 93.9325 25.416C93.6125 26.3333 93.4525 27.5387 93.4525 29.032C93.4525 30.504 93.6125 31.7093 93.9325 32.648C94.2738 33.5653 94.7005 34.28 95.2125 34.792C95.7458 35.304 96.3218 35.656 96.9405 35.848C97.5592 36.0187 98.1565 36.104 98.7325 36.104C99.3085 36.104 99.9058 36.0187 100.525 35.848C101.143 35.656 101.709 35.304 102.221 34.792C102.733 34.28 103.149 33.5653 103.469 32.648C103.789 31.7093 103.949 30.504 103.949 29.032ZM125.362 14.6V37H122.642V34.408H122.514C121.703 36.392 120.039 37.384 117.522 37.384C116.455 37.384 115.474 37.192 114.578 36.808C113.682 36.4027 112.903 35.8373 112.242 35.112C111.602 34.3653 111.1 33.48 110.738 32.456C110.375 31.4107 110.194 30.248 110.194 28.968C110.194 27.7093 110.375 26.568 110.738 25.544C111.1 24.52 111.602 23.6453 112.242 22.92C112.903 22.1947 113.682 21.64 114.578 21.256C115.474 20.8507 116.455 20.648 117.522 20.648C118.034 20.648 118.535 20.7013 119.026 20.808C119.538 20.9147 120.018 21.0853 120.466 21.32C120.914 21.5547 121.308 21.864 121.65 22.248C122.012 22.6107 122.3 23.0693 122.514 23.624H122.642V14.6H125.362ZM122.642 30.6V27.816C122.642 26.9413 122.514 26.1627 122.258 25.48C122.023 24.7973 121.703 24.2213 121.298 23.752C120.892 23.2613 120.423 22.8987 119.89 22.664C119.356 22.408 118.791 22.28 118.194 22.28C117.532 22.28 116.903 22.408 116.306 22.664C115.708 22.8987 115.175 23.2933 114.706 23.848C114.258 24.3813 113.895 25.0747 113.618 25.928C113.362 26.7813 113.234 27.816 113.234 29.032C113.234 30.2267 113.362 31.2507 113.618 32.104C113.895 32.9573 114.258 33.6507 114.706 34.184C115.154 34.7173 115.676 35.112 116.274 35.368C116.871 35.6027 117.511 35.72 118.194 35.72C118.812 35.72 119.388 35.592 119.922 35.336C120.476 35.0587 120.946 34.696 121.33 34.248C121.735 33.7787 122.055 33.2347 122.29 32.616C122.524 31.976 122.642 31.304 122.642 30.6ZM131.49 21H134.21V37H131.49V21ZM131.106 15.944C131.106 15.4747 131.277 15.0693 131.618 14.728C131.96 14.3867 132.365 14.216 132.834 14.216C133.304 14.216 133.709 14.3867 134.05 14.728C134.392 15.0693 134.562 15.4747 134.562 15.944C134.562 16.4133 134.392 16.8187 134.05 17.16C133.709 17.5013 133.304 17.672 132.834 17.672C132.365 17.672 131.96 17.5013 131.618 17.16C131.277 16.8187 131.106 16.4133 131.106 15.944ZM154.518 29.704H142.358C142.358 31.0053 142.55 32.072 142.934 32.904C143.318 33.736 143.798 34.3867 144.374 34.856C144.95 35.3253 145.569 35.656 146.23 35.848C146.913 36.0187 147.553 36.104 148.15 36.104C148.683 36.104 149.163 36.0507 149.59 35.944C150.038 35.816 150.465 35.6453 150.87 35.432C151.275 35.2187 151.67 34.952 152.054 34.632C152.459 34.312 152.886 33.96 153.334 33.576L154.358 34.6C153.505 35.496 152.502 36.1893 151.35 36.68C150.198 37.1493 148.939 37.384 147.574 37.384C146.166 37.384 144.939 37.1493 143.894 36.68C142.87 36.1893 142.017 35.5493 141.334 34.76C140.673 33.9493 140.171 33.0427 139.83 32.04C139.51 31.016 139.35 29.9707 139.35 28.904C139.35 27.624 139.542 26.4827 139.926 25.48C140.31 24.456 140.843 23.592 141.526 22.888C142.209 22.1627 143.009 21.6187 143.926 21.256C144.843 20.872 145.846 20.68 146.934 20.68C147.958 20.68 148.929 20.8507 149.846 21.192C150.763 21.5333 151.563 22.0453 152.246 22.728C152.95 23.4107 153.505 24.2747 153.91 25.32C154.315 26.3653 154.518 27.6027 154.518 29.032V29.704ZM142.358 28.424H151.734C151.734 26.3547 151.307 24.7333 150.454 23.56C149.622 22.3653 148.449 21.768 146.934 21.768C146.145 21.768 145.462 21.96 144.886 22.344C144.31 22.7067 143.83 23.1973 143.446 23.816C143.083 24.4347 142.806 25.1493 142.614 25.96C142.443 26.7493 142.358 27.5707 142.358 28.424ZM162.877 25.864V37H159.965V14.6H162.877V24.392H176.285V14.6H179.197V37H176.285V25.864H162.877ZM185.591 21H188.311V31.56C188.311 31.7733 188.333 32.1147 188.375 32.584C188.418 33.032 188.557 33.4907 188.791 33.96C189.047 34.4293 189.421 34.8453 189.911 35.208C190.423 35.5493 191.127 35.72 192.023 35.72C192.578 35.72 193.111 35.624 193.623 35.432C194.135 35.24 194.583 34.952 194.967 34.568C195.351 34.1627 195.661 33.6613 195.895 33.064C196.13 32.4667 196.247 31.752 196.247 30.92V21H198.967V37H196.247V34.984H196.119L195.607 35.496C194.861 36.2427 194.114 36.744 193.367 37C192.642 37.2773 191.97 37.4053 191.351 37.384C189.943 37.384 188.845 37.1493 188.055 36.68C187.287 36.1893 186.722 35.624 186.359 34.984C185.997 34.3227 185.773 33.6613 185.687 33C185.623 32.3173 185.591 31.784 185.591 31.4V21ZM217.561 37H214.841V26.472C214.841 26.2587 214.82 25.9173 214.777 25.448C214.734 24.9787 214.596 24.5093 214.361 24.04C214.148 23.5707 213.796 23.1653 213.305 22.824C212.814 22.4613 212.121 22.28 211.225 22.28C210.67 22.28 210.126 22.376 209.593 22.568C209.081 22.76 208.622 23.0587 208.217 23.464C207.812 23.8693 207.492 24.3707 207.257 24.968C207.022 25.5653 206.905 26.28 206.905 27.112V37H204.185V21H206.905V23.048H207.033L207.545 22.536C208.292 21.7893 209.049 21.288 209.817 21.032C210.585 20.7547 211.278 20.6267 211.897 20.648C213.305 20.648 214.393 20.8933 215.161 21.384C215.929 21.8533 216.484 22.4187 216.825 23.08C217.188 23.72 217.401 24.3813 217.465 25.064C217.529 25.7253 217.561 26.248 217.561 26.632V37ZM221.179 22.28V21H223.963V16.072H226.683V21H230.555V22.28H226.683V32.904C226.683 33.16 226.693 33.4587 226.715 33.8C226.736 34.12 226.8 34.4293 226.907 34.728C227.013 35.0053 227.173 35.24 227.387 35.432C227.621 35.624 227.941 35.72 228.347 35.72C228.859 35.72 229.285 35.528 229.627 35.144C229.968 34.76 230.245 34.344 230.459 33.896L231.963 35.432C230.917 36.4773 229.733 37 228.411 37C227.856 37 227.312 36.904 226.779 36.712C226.245 36.52 225.765 36.232 225.339 35.848C224.933 35.4427 224.603 34.9307 224.347 34.312C224.091 33.6933 223.963 32.968 223.963 32.136V22.28H221.179Z" fill="#EC7CDA"/>
</g>
<defs>
<clipPath id="clip0_101_3">
<rect width="235" height="49" fill="white"/>
</clipPath>
</defs>
</svg>
