<svg width="179" height="24" viewBox="0 0 179 24" fill="none" xmlns="http://www.w3.org/2000/svg">
<path d="M0.62125 0.599998H15.0853V2.36H3.53325V10.392H13.4533V11.864H3.53325V23H0.62125V0.599998ZM34.2073 15.032C34.2073 16.1413 34.0153 17.208 33.6313 18.232C33.2473 19.2347 32.6926 20.12 31.9673 20.888C31.2633 21.656 30.3993 22.264 29.3753 22.712C28.3726 23.16 27.2419 23.384 25.9833 23.384C24.7033 23.384 23.5406 23.16 22.4953 22.712C21.4713 22.2427 20.5966 21.624 19.8713 20.856C19.1673 20.088 18.6126 19.2027 18.2073 18.2C17.8233 17.176 17.6313 16.12 17.6313 15.032C17.6313 13.9227 17.8233 12.8667 18.2073 11.864C18.6126 10.84 19.1673 9.944 19.8713 9.176C20.5966 8.408 21.4713 7.8 22.4953 7.352C23.5406 6.88267 24.7033 6.648 25.9833 6.648C27.2419 6.648 28.3726 6.88267 29.3753 7.352C30.3993 7.8 31.2633 8.408 31.9673 9.176C32.6926 9.944 33.2473 10.84 33.6313 11.864C34.0153 12.8667 34.2073 13.9227 34.2073 15.032ZM31.1673 15.032C31.1673 13.5387 31.0073 12.3333 30.6873 11.416C30.3673 10.4773 29.9513 9.752 29.4393 9.24C28.9273 8.728 28.3619 8.38667 27.7433 8.216C27.1246 8.024 26.5273 7.928 25.9513 7.928C25.3753 7.928 24.7779 8.024 24.1593 8.216C23.5406 8.38667 22.9646 8.728 22.4313 9.24C21.9193 9.752 21.4926 10.4773 21.1513 11.416C20.8313 12.3333 20.6713 13.5387 20.6713 15.032C20.6713 16.504 20.8313 17.7093 21.1513 18.648C21.4926 19.5653 21.9193 20.28 22.4313 20.792C22.9646 21.304 23.5406 21.656 24.1593 21.848C24.7779 22.0187 25.3753 22.104 25.9513 22.104C26.5273 22.104 27.1246 22.0187 27.7433 21.848C28.3619 21.656 28.9273 21.304 29.4393 20.792C29.9513 20.28 30.3673 19.5653 30.6873 18.648C31.0073 17.7093 31.1673 16.504 31.1673 15.032ZM53.9885 15.032C53.9885 16.1413 53.7965 17.208 53.4125 18.232C53.0285 19.2347 52.4738 20.12 51.7485 20.888C51.0445 21.656 50.1805 22.264 49.1565 22.712C48.1538 23.16 47.0232 23.384 45.7645 23.384C44.4845 23.384 43.3218 23.16 42.2765 22.712C41.2525 22.2427 40.3778 21.624 39.6525 20.856C38.9485 20.088 38.3938 19.2027 37.9885 18.2C37.6045 17.176 37.4125 16.12 37.4125 15.032C37.4125 13.9227 37.6045 12.8667 37.9885 11.864C38.3938 10.84 38.9485 9.944 39.6525 9.176C40.3778 8.408 41.2525 7.8 42.2765 7.352C43.3218 6.88267 44.4845 6.648 45.7645 6.648C47.0232 6.648 48.1538 6.88267 49.1565 7.352C50.1805 7.8 51.0445 8.408 51.7485 9.176C52.4738 9.944 53.0285 10.84 53.4125 11.864C53.7965 12.8667 53.9885 13.9227 53.9885 15.032ZM50.9485 15.032C50.9485 13.5387 50.7885 12.3333 50.4685 11.416C50.1485 10.4773 49.7325 9.752 49.2205 9.24C48.7085 8.728 48.1432 8.38667 47.5245 8.216C46.9058 8.024 46.3085 7.928 45.7325 7.928C45.1565 7.928 44.5592 8.024 43.9405 8.216C43.3218 8.38667 42.7458 8.728 42.2125 9.24C41.7005 9.752 41.2738 10.4773 40.9325 11.416C40.6125 12.3333 40.4525 13.5387 40.4525 15.032C40.4525 16.504 40.6125 17.7093 40.9325 18.648C41.2738 19.5653 41.7005 20.28 42.2125 20.792C42.7458 21.304 43.3218 21.656 43.9405 21.848C44.5592 22.0187 45.1565 22.104 45.7325 22.104C46.3085 22.104 46.9058 22.0187 47.5245 21.848C48.1432 21.656 48.7085 21.304 49.2205 20.792C49.7325 20.28 50.1485 19.5653 50.4685 18.648C50.7885 17.7093 50.9485 16.504 50.9485 15.032ZM72.3618 0.599998V23H69.6418V20.408H69.5138C68.7031 22.392 67.0391 23.384 64.5218 23.384C63.4551 23.384 62.4738 23.192 61.5778 22.808C60.6818 22.4027 59.9031 21.8373 59.2418 21.112C58.6018 20.3653 58.1004 19.48 57.7378 18.456C57.3751 17.4107 57.1938 16.248 57.1938 14.968C57.1938 13.7093 57.3751 12.568 57.7378 11.544C58.1004 10.52 58.6018 9.64533 59.2418 8.92C59.9031 8.19467 60.6818 7.64 61.5778 7.256C62.4738 6.85067 63.4551 6.648 64.5218 6.648C65.0338 6.648 65.5351 6.70133 66.0258 6.808C66.5378 6.91467 67.0178 7.08533 67.4658 7.32C67.9138 7.55467 68.3084 7.864 68.6498 8.248C69.0124 8.61067 69.3004 9.06933 69.5138 9.624H69.6418V0.599998H72.3618ZM69.6418 16.6V13.816C69.6418 12.9413 69.5138 12.1627 69.2578 11.48C69.0231 10.7973 68.7031 10.2213 68.2978 9.752C67.8924 9.26133 67.4231 8.89867 66.8898 8.664C66.3564 8.408 65.7911 8.28 65.1938 8.28C64.5324 8.28 63.9031 8.408 63.3058 8.664C62.7084 8.89867 62.1751 9.29333 61.7058 9.848C61.2578 10.3813 60.8951 11.0747 60.6178 11.928C60.3618 12.7813 60.2338 13.816 60.2338 15.032C60.2338 16.2267 60.3618 17.2507 60.6178 18.104C60.8951 18.9573 61.2578 19.6507 61.7058 20.184C62.1538 20.7173 62.6764 21.112 63.2738 21.368C63.8711 21.6027 64.5111 21.72 65.1938 21.72C65.8124 21.72 66.3884 21.592 66.9218 21.336C67.4764 21.0587 67.9458 20.696 68.3298 20.248C68.7351 19.7787 69.0551 19.2347 69.2898 18.616C69.5244 17.976 69.6418 17.304 69.6418 16.6ZM78.4903 7H81.2103V23H78.4903V7ZM78.1063 1.944C78.1063 1.47467 78.2769 1.06933 78.6183 0.727999C78.9596 0.386666 79.3649 0.216 79.8343 0.216C80.3036 0.216 80.7089 0.386666 81.0503 0.727999C81.3916 1.06933 81.5623 1.47467 81.5623 1.944C81.5623 2.41333 81.3916 2.81867 81.0503 3.16C80.7089 3.50133 80.3036 3.672 79.8343 3.672C79.3649 3.672 78.9596 3.50133 78.6183 3.16C78.2769 2.81867 78.1063 2.41333 78.1063 1.944ZM101.518 15.704H89.358C89.358 17.0053 89.55 18.072 89.934 18.904C90.318 19.736 90.798 20.3867 91.374 20.856C91.95 21.3253 92.5687 21.656 93.23 21.848C93.9127 22.0187 94.5527 22.104 95.15 22.104C95.6833 22.104 96.1633 22.0507 96.59 21.944C97.038 21.816 97.4647 21.6453 97.87 21.432C98.2753 21.2187 98.67 20.952 99.054 20.632C99.4593 20.312 99.886 19.96 100.334 19.576L101.358 20.6C100.505 21.496 99.502 22.1893 98.35 22.68C97.198 23.1493 95.9393 23.384 94.574 23.384C93.166 23.384 91.9393 23.1493 90.894 22.68C89.87 22.1893 89.0167 21.5493 88.334 20.76C87.6727 19.9493 87.1713 19.0427 86.83 18.04C86.51 17.016 86.35 15.9707 86.35 14.904C86.35 13.624 86.542 12.4827 86.926 11.48C87.31 10.456 87.8433 9.592 88.526 8.888C89.2087 8.16267 90.0087 7.61867 90.926 7.256C91.8433 6.872 92.846 6.68 93.934 6.68C94.958 6.68 95.9287 6.85067 96.846 7.192C97.7633 7.53333 98.5633 8.04533 99.246 8.728C99.95 9.41067 100.505 10.2747 100.91 11.32C101.315 12.3653 101.518 13.6027 101.518 15.032V15.704ZM89.358 14.424H98.734C98.734 12.3547 98.3073 10.7333 97.454 9.56C96.622 8.36533 95.4487 7.768 93.934 7.768C93.1447 7.768 92.462 7.96 91.886 8.344C91.31 8.70667 90.83 9.19733 90.446 9.816C90.0833 10.4347 89.806 11.1493 89.614 11.96C89.4433 12.7493 89.358 13.5707 89.358 14.424ZM109.877 11.864V23H106.965V0.599998H109.877V10.392H123.285V0.599998H126.197V23H123.285V11.864H109.877ZM132.591 7H135.311V17.56C135.311 17.7733 135.333 18.1147 135.375 18.584C135.418 19.032 135.557 19.4907 135.791 19.96C136.047 20.4293 136.421 20.8453 136.911 21.208C137.423 21.5493 138.127 21.72 139.023 21.72C139.578 21.72 140.111 21.624 140.623 21.432C141.135 21.24 141.583 20.952 141.967 20.568C142.351 20.1627 142.661 19.6613 142.895 19.064C143.13 18.4667 143.247 17.752 143.247 16.92V7H145.967V23H143.247V20.984H143.119L142.607 21.496C141.861 22.2427 141.114 22.744 140.367 23C139.642 23.2773 138.97 23.4053 138.351 23.384C136.943 23.384 135.845 23.1493 135.055 22.68C134.287 22.1893 133.722 21.624 133.359 20.984C132.997 20.3227 132.773 19.6613 132.687 19C132.623 18.3173 132.591 17.784 132.591 17.4V7ZM164.561 23H161.841V12.472C161.841 12.2587 161.82 11.9173 161.777 11.448C161.734 10.9787 161.596 10.5093 161.361 10.04C161.148 9.57067 160.796 9.16533 160.305 8.824C159.814 8.46133 159.121 8.28 158.225 8.28C157.67 8.28 157.126 8.376 156.593 8.568C156.081 8.76 155.622 9.05867 155.217 9.464C154.812 9.86933 154.492 10.3707 154.257 10.968C154.022 11.5653 153.905 12.28 153.905 13.112V23H151.185V7H153.905V9.048H154.033L154.545 8.536C155.292 7.78933 156.049 7.288 156.817 7.032C157.585 6.75467 158.278 6.62667 158.897 6.648C160.305 6.648 161.393 6.89333 162.161 7.384C162.929 7.85333 163.484 8.41867 163.825 9.08C164.188 9.72 164.401 10.3813 164.465 11.064C164.529 11.7253 164.561 12.248 164.561 12.632V23ZM168.179 8.28V7H170.963V2.072H173.683V7H177.555V8.28H173.683V18.904C173.683 19.16 173.693 19.4587 173.715 19.8C173.736 20.12 173.8 20.4293 173.907 20.728C174.013 21.0053 174.173 21.24 174.387 21.432C174.621 21.624 174.941 21.72 175.347 21.72C175.859 21.72 176.285 21.528 176.627 21.144C176.968 20.76 177.245 20.344 177.459 19.896L178.963 21.432C177.917 22.4773 176.733 23 175.411 23C174.856 23 174.312 22.904 173.779 22.712C173.245 22.52 172.765 22.232 172.339 21.848C171.933 21.4427 171.603 20.9307 171.347 20.312C171.091 19.6933 170.963 18.968 170.963 18.136V8.28H168.179Z" fill="#EC7CDA"/>
</svg>
